<?xml version="1.0" encoding="UTF-8"?>
<!DOCTYPE svg PUBLIC "-//W3C//DTD SVG 1.1//EN" "http://www.w3.org/Graphics/SVG/1.1/DTD/svg11.dtd">
<!-- Creator: CorelDRAW -->
<svg xmlns="http://www.w3.org/2000/svg" xml:space="preserve" width="100%" height="100%" style="shape-rendering:geometricPrecision; text-rendering:geometricPrecision; image-rendering:optimizeQuality; fill-rule:evenodd; clip-rule:evenodd"
viewBox="0 0 2.1e+006 2.97e+006"
 xmlns:xlink="http://www.w3.org/1999/xlink">
 <defs>
  <style type="text/css">
   <![CDATA[
    .str0 {stroke:#0A0B0C;stroke-width:13}
    .str2 {stroke:#0A0B0C;stroke-width:1760}
    .str3 {stroke:#0A0B0C;stroke-width:1760;stroke-linejoin:bevel}
    .str5 {stroke:#1F1A17;stroke-width:1760}
    .str4 {stroke:black;stroke-width:1760}
    .str1 {stroke:#0A0B0C;stroke-width:1764}
    .fil5 {fill:none}
    .fil4 {fill:#0A0B0C}
    .fil1 {fill:#183884}
    .fil0 {fill:#DEDEDD}
    .fil2 {fill:#C5E5F9}
    .fil3 {fill:#0A0B0C;fill-rule:nonzero}
    .fil6 {fill:#1F1A17;fill-rule:nonzero}
    .fil7 {fill:white;fill-rule:nonzero}
   ]]>
  </style>
 </defs>
 <g id="图层_x0020_1">
  <metadata id="CorelCorpID_0Corel-Layer"/>
  <rect class="fil0" x="875492" y="563426" width="466445" height="361922"/>
  <rect class="fil1" x="875492" y="515719" width="466383" height="40000"/>
  <rect class="fil1" x="669403" y="515719" width="190980" height="40000"/>
  <rect class="fil2" x="669492" y="563314" width="190981" height="361920"/>
  <polygon class="fil3" points="726565,592623 728370,592623 728370,578401 726565,578401 "/>
  <path id="1" class="fil3" d="M732250 592623l1708 0 0 -7470c-4,-750 -30,-1497 -78,-2244 -49,-747 -94,-1481 -136,-2199l78 0 1533 2930 5180 8983 1843 0 0 -14222 -1707 0 0 7392c0,492 13,993 38,1504 26,508 55,1016 91,1520 36,504 71,999 103,1478l-97 0 -1513 -2930 -5180 -8964 -1863 0 0 14222z"/>
  <g>
   <path class="fil3" d="M748265 610702l-1760 0 0 0 -16 -723 -54 -709 -91 -698 -120 -687 -156 -677 -190 -663 -219 -649 -249 -634 -280 -615 -307 -604 -337 -587 -366 -564 -386 -548 -417 -530 -440 -505 -464 -488 -484 -461 -505 -440 -530 -412 -548 -390 -565 -367 -587 -336 -603 -307 -616 -281 -633 -249 -649 -219 -664 -190 -676 -156 -688 -120 -698 -91 -709 -54 -723 -16 0 -1760 805 22 799 62 788 97 776 142 760 176 746 210 731 247 715 283 700 315 677 349 657 378 641 407 616 438 592 468 573 494 546 523 520 544 494 573 465 592 442 616 406 640 379 657 349 678 314 699 283 716 247 731 210 745 176 761 142 775 97 788 62 799 22 805 0 0zm-15730 15730l0 -1760 0 0 723 -16 709 -54 698 -91 688 -120 676 -156 664 -190 649 -219 633 -249 616 -281 603 -307 587 -336 565 -367 548 -386 530 -417 505 -440 484 -463 464 -485 440 -505 417 -530 386 -548 366 -565 337 -587 307 -603 280 -616 249 -633 219 -649 190 -664 156 -676 120 -687 91 -698 54 -709 16 -723 1760 0 -22 805 -62 799 -97 788 -142 775 -176 760 -210 746 -247 731 -283 715 -314 700 -349 677 -379 657 -406 641 -442 616 -465 592 -494 573 -520 547 -546 519 -573 494 -592 465 -616 442 -641 407 -657 378 -677 349 -700 315 -715 283 -731 247 -746 210 -760 176 -776 142 -788 97 -799 62 -805 22 0 0zm-15730 -15730l1760 0 0 0 16 723 54 709 91 698 120 687 156 676 190 664 219 649 249 633 281 616 307 603 336 587 367 565 390 548 412 530 440 505 461 485 488 463 505 440 530 417 548 386 564 367 587 333 604 310 615 281 634 249 649 219 663 190 677 156 687 120 698 91 709 54 723 16 0 1760 -805 -22 -799 -62 -788 -97 -775 -142 -761 -176 -745 -210 -731 -247 -716 -283 -699 -315 -678 -346 -657 -381 -640 -407 -616 -442 -592 -465 -573 -494 -544 -519 -523 -547 -494 -573 -468 -592 -438 -616 -407 -641 -378 -657 -349 -677 -315 -700 -283 -715 -247 -731 -210 -746 -176 -760 -142 -775 -97 -788 -62 -799 -22 -805 0 0zm15730 -15730l0 1760 0 0 -723 16 -709 54 -698 91 -687 120 -677 156 -663 190 -649 219 -634 249 -615 281 -604 310 -587 333 -564 367 -548 390 -530 412 -505 440 -485 464 -464 485 -440 505 -412 530 -390 548 -367 564 -333 587 -310 604 -281 615 -249 634 -219 649 -190 663 -156 677 -120 687 -91 698 -54 709 -16 723 -1760 0 22 -805 62 -799 97 -788 142 -775 176 -761 210 -745 247 -731 283 -716 315 -699 346 -678 381 -657 407 -640 438 -616 468 -592 494 -573 520 -547 547 -520 573 -494 592 -468 616 -438 640 -407 657 -381 678 -346 699 -315 716 -283 731 -247 745 -210 761 -176 775 -142 788 -97 799 -62 805 -22 0 0z"/>
  </g>
  <polygon class="fil4 str0" points="743354,610702 735437,614167 727518,617631 727518,610702 727518,603772 735437,607237 "/>
  <line class="fil5 str1" x1="729019" y1="610703" x2="700866" y2= "610703" />
  <path class="fil3" d="M1.20832e+006 591875c896,-3 1714,-174 2454,-517 741,-343 1381,-834 1921,-1478 540,-647 957,-1423 1252,-2335 294,-912 443,-1940 446,-3081 -3,-1142 -152,-2167 -446,-3069 -295,-906 -712,-1675 -1252,-2309 -540,-634 -1180,-1119 -1921,-1452 -740,-333 -1558,-501 -2454,-504 -896,3 -1714,171 -2454,504 -741,333 -1381,818 -1921,1452 -540,634 -957,1403 -1251,2309 -295,902 -443,1927 -447,3069 4,1141 152,2169 447,3081 294,912 711,1688 1251,2335 540,644 1180,1135 1921,1478 740,343 1558,514 2454,517zm0 -1571c-643,-4 -1222,-139 -1740,-414 -520,-272 -963,-663 -1335,-1174 -372,-511 -657,-1125 -854,-1843 -197,-715 -297,-1520 -300,-2409 3,-1197 181,-2222 527,-3082 346,-857 837,-1520 1468,-1982 630,-459 1377,-695 2234,-699 854,4 1594,240 2228,699 631,462 1122,1125 1471,1982 350,860 528,1885 531,3082 -3,889 -104,1694 -304,2409 -201,718 -485,1332 -857,1843 -372,511 -818,902 -1336,1174 -517,275 -1096,410 -1733,414z"/>
  <path id="1" class="fil3" d="M1.22251e+006 591875c731,3 1406,-100 2027,-313 621,-214 1164,-560 1627,-1035 462,-476 821,-1106 1077,-1892 258,-786 388,-1749 391,-2891l0 -8343 -1727 0 0 8401c-3,854 -90,1572 -262,2154 -174,579 -414,1041 -721,1384 -310,346 -669,592 -1080,744 -411,149 -854,223 -1332,220 -463,3 -896,-71 -1294,-220 -397,-152 -747,-398 -1047,-744 -298,-343 -534,-805 -702,-1384 -168,-582 -252,-1300 -256,-2154l0 -8401 -1804 0 0 8343c3,1142 136,2105 391,2891 256,786 615,1416 1077,1892 459,475 999,821 1617,1035 618,213 1290,316 2018,313z"/>
  <polygon id="12" class="fil3" points="1.23442e+006,591623 1.23622e+006,591623 1.23622e+006,578915 1.24053e+006,578915 1.24053e+006,577401 1.23011e+006,577401 1.23011e+006,578915 1.23442e+006,578915 "/>
  <polygon class="fil4 str0" points="1.25929e+006,609702 1.25137e+006,613167 1.24345e+006,616631 1.24345e+006,609702 1.24345e+006,602772 1.25137e+006,606237 "/>
  <line class="fil5 str1" x1="1.24495e+006" y1="609703" x2="1.2168e+006" y2= "609703" />
  <g>
   <path class="fil3" d="M1.23481e+006 609893l-1760 0 0 0 -16 -723 -54 -709 -91 -698 -120 -687 -156 -677 -190 -663 -219 -649 -249 -634 -281 -615 -310 -604 -333 -587 -367 -564 -386 -548 -417 -530 -439 -505 -464 -485 -485 -464 -505 -440 -530 -412 -548 -390 -565 -367 -587 -336 -603 -307 -616 -281 -633 -249 -649 -219 -664 -190 -676 -156 -688 -120 -698 -91 -709 -54 -723 -16 0 -1760 805 22 799 62 788 97 776 142 760 176 746 210 731 247 715 283 700 315 677 349 657 378 641 407 616 438 592 468 573 494 547 520 520 547 493 573 465 592 442 616 407 640 381 657 346 678 315 699 283 716 247 731 210 745 176 761 142 775 97 788 62 799 22 805 0 0zm-15731 15730l0 -1760 0 0 723 -16 709 -54 698 -91 688 -120 676 -156 664 -190 649 -219 633 -249 616 -281 603 -307 587 -336 565 -367 548 -386 530 -417 505 -440 488 -463 461 -485 439 -505 417 -530 386 -548 367 -565 336 -587 307 -603 281 -616 249 -633 219 -649 190 -664 156 -676 120 -687 91 -698 54 -709 16 -723 1760 0 -22 805 -62 799 -97 788 -142 775 -176 760 -210 746 -247 731 -283 715 -315 700 -349 677 -378 657 -407 641 -442 616 -465 592 -493 573 -523 547 -544 519 -573 494 -592 465 -616 442 -641 407 -657 378 -677 349 -700 315 -715 283 -731 247 -746 210 -760 176 -776 142 -788 97 -799 62 -805 22 0 0zm-15729 -15730l1760 0 0 0 16 723 54 709 91 698 120 687 156 676 190 664 219 649 249 633 280 616 307 603 337 587 366 565 386 548 417 530 440 505 464 485 484 463 505 440 530 417 548 386 565 367 586 336 604 307 615 281 634 249 649 219 663 190 677 156 687 120 698 91 709 54 723 16 0 1760 -805 -22 -799 -62 -788 -97 -775 -142 -761 -176 -745 -210 -731 -247 -716 -283 -699 -315 -678 -349 -656 -378 -641 -407 -616 -442 -592 -465 -573 -494 -546 -519 -520 -547 -494 -573 -465 -592 -442 -616 -406 -641 -379 -657 -349 -677 -314 -700 -283 -715 -247 -731 -210 -746 -176 -760 -142 -775 -97 -788 -62 -799 -22 -805 0 0zm15729 -15730l0 1760 0 0 -723 16 -709 54 -698 91 -687 120 -677 156 -663 190 -649 219 -634 249 -615 281 -604 307 -586 336 -565 367 -548 390 -530 412 -505 440 -484 461 -464 488 -440 505 -417 530 -386 548 -366 564 -337 587 -307 604 -280 615 -249 634 -219 649 -190 663 -156 677 -120 687 -91 698 -54 709 -16 723 -1760 0 22 -805 62 -799 97 -788 142 -775 176 -761 210 -745 247 -731 283 -716 314 -699 349 -678 379 -657 406 -640 442 -616 465 -592 494 -573 520 -544 546 -523 573 -494 592 -468 616 -438 641 -407 656 -378 678 -349 699 -315 716 -283 731 -247 745 -210 761 -176 775 -142 788 -97 799 -62 805 -22 0 0z"/>
  </g>
  <rect class="fil5 str1" x="1.00037e+006" y="632185" width="106094" height="157452"/>
  <polyline class="fil5 str1" points="1.00367e+006,881259 940515,881259 940515,608866 1.16751e+006,608866 1.16751e+006,881259 1.10105e+006,881259 "/>
  <line class="fil5 str1" x1="1.05086e+006" y1="740406" x2="1.05086e+006" y2= "631543" />
  <line class="fil5 str1" x1="1.05598e+006" y1="740406" x2="1.05598e+006" y2= "631543" />
  <line class="fil5 str1" x1="1.10682e+006" y1="785771" x2="1.05569e+006" y2= "740019" />
  <line class="fil5 str1" x1="1.10328e+006" y1="789460" x2="1.05333e+006" y2= "744046" />
  <line class="fil5 str1" x1="999881" y1="785771" x2="1.05101e+006" y2= "740019" />
  <line class="fil5 str1" x1="1.00342e+006" y1="789460" x2="1.05338e+006" y2= "744046" />
  <line class="fil5 str1" x1="1.04556e+006" y1="816909" x2="1.16664e+006" y2= "817034" />
  <line class="fil5 str1" x1="1.06288e+006" y1="846754" x2="1.16691e+006" y2= "846754" />
  <line class="fil5 str1" x1="1.06283e+006" y1="883320" x2="1.06283e+006" y2= "790102" />
  <line class="fil5 str1" x1="1.04559e+006" y1="883320" x2="1.04559e+006" y2= "789484" />
  <path class="fil0 str2" d="M1.16385e+006 846755c0,2116 1727,3842 3845,3842 2118,0 3845,-1726 3845,-3842 0,-2117 -1727,-3843 -3845,-3843 -2118,0 -3845,1726 -3845,3843 0,0 0,0 0,0z"/>
  <path class="fil0 str2" d="M1.16385e+006 817035c0,2116 1727,3842 3845,3842 2118,0 3845,-1726 3845,-3842 0,-2117 -1727,-3843 -3845,-3843 -2118,0 -3845,1726 -3845,3843 0,0 0,0 0,0z"/>
  <path class="fil3" d="M1.12869e+006 831017c-599,596 -1354,1170 -2273,1722l0 -1308c1148,-782 2089,-1702 2823,-2758l826 0 0 11852 -1376 0 0 -9508z"/>
  <path id="1" class="fil3" d="M1.14184e+006 841489l-758 759c-1146,-1103 -2007,-2250 -2582,-3446 -574,-1194 -861,-2550 -861,-4064 0,-1516 287,-2871 861,-4065 575,-1194 1436,-2367 2582,-3517l758 759c-1055,1011 -1848,2058 -2377,3137 -526,1079 -791,2308 -791,3686 0,1377 265,2605 791,3688 529,1079 1322,2099 2377,3063z"/>
  <polygon id="12" class="fil3" points="1.15072e+006,835083 1.14734e+006,835083 1.14734e+006,838457 1.14618e+006,838457 1.14618e+006,835083 1.1428e+006,835083 1.1428e+006,833980 1.14618e+006,833980 1.14618e+006,830602 1.14734e+006,830602 1.14734e+006,833980 1.15072e+006,833980 "/>
  <path id="123" class="fil3" d="M1.15588e+006 834738c0,1514 -285,2870 -861,4064 -572,1196 -1433,2343 -2582,3446l-755 -759c1055,-964 1848,-1984 2374,-3063 529,-1083 793,-2311 793,-3688 0,-1378 -264,-2607 -793,-3686 -526,-1079 -1319,-2126 -2374,-3137l755 -759c1149,1150 2010,2323 2582,3517 576,1194 861,2549 861,4065z"/>
  <path class="fil3" d="M1.12568e+006 810852c47,-691 367,-1311 963,-1861 599,-552 1355,-1414 2274,-2585 916,-1173 1513,-2078 1789,-2722 276,-644 379,-1193 311,-1652 -70,-462 -287,-840 -655,-1138 -367,-299 -793,-426 -1275,-379 -482,47 -939,230 -1374,550 -438,324 -770,806 -1000,1450l-1306 -209c367,-1056 837,-1826 1409,-2308 573,-482 1252,-747 2031,-791 461,-47 873,-35 1240,32 367,70 746,232 1136,482 391,253 711,632 964,1138 253,506 343,1114 276,1826 -70,712 -426,1563 -1067,2548 -643,989 -1883,2541 -3719,4652l4956 0 0 1241 -6953 0 0 -274z"/>
  <path id="1" class="fil3" d="M1.14186e+006 812090l-758 759c-1146,-1103 -2007,-2250 -2582,-3446 -574,-1194 -861,-2550 -861,-4064 0,-1516 287,-2871 861,-4065 575,-1194 1436,-2367 2582,-3517l758 759c-1055,1011 -1848,2058 -2377,3137 -526,1079 -791,2308 -791,3686 0,1377 265,2605 791,3688 529,1079 1322,2099 2377,3063z"/>
  <polygon id="12" class="fil3" points="1.15068e+006,805684 1.14283e+006,805684 1.14283e+006,804581 1.15068e+006,804581 "/>
  <path id="123" class="fil3" d="M1.15591e+006 805339c0,1514 -285,2870 -861,4064 -572,1196 -1433,2343 -2582,3446l-755 -759c1055,-964 1848,-1984 2374,-3063 529,-1083 793,-2311 793,-3688 0,-1378 -264,-2607 -793,-3686 -526,-1079 -1319,-2126 -2374,-3137l755 -759c1149,1150 2010,2323 2582,3517 576,1194 861,2549 861,4065z"/>
  <path class="fil4 str3" d="M1.06283e+006 844278c-1366,0 -2475,1108 -2475,2476 0,1366 1109,2475 2475,2475 1368,0 2476,-1109 2476,-2475 0,-1368 -1108,-2476 -2476,-2476z"/>
  <path class="fil4 str3" d="M1.04559e+006 814496c-1367,0 -2476,1108 -2476,2475 0,1367 1109,2476 2476,2476 1367,0 2475,-1109 2475,-2476 0,-1367 -1108,-2475 -2475,-2475z"/>
  <line class="fil5 str2" x1="1.0028e+006" y1="867043" x2="1.0028e+006" y2= "881785" />
  <line class="fil5 str2" x1="1.10196e+006" y1="867262" x2="1.10196e+006" y2= "881847" />
  <line class="fil5 str2" x1="1.00188e+006" y1="867504" x2="1.10276e+006" y2= "867504" />
  <polygon class="fil3" points="1.05002e+006,897667 1.04217e+006,897667 1.04217e+006,896564 1.05002e+006,896564 "/>
  <polygon class="fil3" points="1.06669e+006,897667 1.06331e+006,897667 1.06331e+006,901041 1.06214e+006,901041 1.06214e+006,897667 1.05877e+006,897667 1.05877e+006,896564 1.06214e+006,896564 1.06214e+006,893186 1.06331e+006,893186 1.06331e+006,896564 1.06669e+006,896564 "/>
  <path class="fil5 str2" d="M1.04177e+006 887248c0,-2104 1707,-3811 3811,-3811 2104,0 3812,1707 3812,3811"/>
  <path class="fil5 str2" d="M1.05902e+006 887248c0,-2104 1707,-3811 3811,-3811 2104,0 3812,1707 3812,3811"/>
  <polyline class="fil5 str1" points="777352,664157 975885,664157 1.00037e+006,664157 "/>
  <path class="fil0 str2" d="M944593 664157c0,2117 -1727,3843 -3845,3843 -2118,0 -3845,-1726 -3845,-3843 0,-2116 1727,-3842 3845,-3842 2118,0 3845,1726 3845,3842 0,0 0,0 0,0z"/>
  <path class="fil3" d="M962680 657932c1011,-1699 1837,-3240 2480,-4618 -1149,184 -2101,35 -2859,-447 -758,-482 -1216,-1138 -1377,-1964 -159,-826 -148,-1573 35,-2241 184,-664 469,-1217 861,-1652 391,-438 860,-746 1413,-932 549,-182 1042,-273 1477,-273 438,0 885,91 1343,273 462,186 872,462 1240,830 367,367 620,746 758,1134 137,392 205,897 205,1518 0,620 -228,1410 -687,2377 -458,965 -1584,2961 -3372,5995l-1517 0zm-379 -7717c71,596 320,1091 758,1482 435,388 908,561 1411,514 504,-44 908,-182 1207,-411 297,-230 584,-621 861,-1173 182,-689 229,-1274 135,-1756 -92,-482 -332,-884 -723,-1208 -390,-320 -814,-482 -1272,-482 -276,-44 -631,23 -1069,209 -435,182 -779,550 -1031,1102 -253,550 -344,1126 -277,1723z"/>
  <path id="1" class="fil3" d="M977485 658688l-758 759c-1146,-1103 -2007,-2250 -2582,-3446 -574,-1194 -861,-2550 -861,-4064 0,-1516 287,-2871 861,-4065 575,-1194 1436,-2367 2582,-3517l758 759c-1055,1011 -1848,2058 -2377,3137 -526,1079 -791,2308 -791,3686 0,1377 265,2605 791,3688 529,1079 1322,2099 2377,3063z"/>
  <polygon id="12" class="fil3" points="986368,652282 982993,652282 982993,655656 981824,655656 981824,652282 978448,652282 978448,651179 981824,651179 981824,647801 982993,647801 982993,651179 986368,651179 "/>
  <path id="123" class="fil3" d="M991530 651937c0,1514 -285,2870 -861,4064 -572,1196 -1433,2343 -2582,3446l-755 -759c1055,-964 1848,-1984 2374,-3063 529,-1083 793,-2311 793,-3688 0,-1378 -264,-2607 -793,-3686 -526,-1079 -1319,-2126 -2374,-3137l755 -759c1149,1150 2010,2323 2582,3517 576,1194 861,2549 861,4065z"/>
  <path class="fil3" d="M955334 741692c-599,596 -1354,1170 -2273,1722l0 -1308c1148,-782 2089,-1702 2823,-2758l826 0 0 11852 -1376 0 0 -9508z"/>
  <path id="1" class="fil3" d="M960910 744620c47,-1217 218,-2181 518,-2893 296,-712 722,-1300 1272,-1758 553,-459 1228,-688 2033,-688 802,0 1502,332 2100,1000 597,663 988,1502 1169,2513 186,1011 242,2170 174,3481 -70,1308 -299,2375 -690,3202 -392,828 -976,1402 -1754,1723 -782,323 -1563,287 -2342,-103 -781,-391 -1330,-906 -1654,-1550 -320,-644 -549,-1320 -687,-2035 -139,-710 -186,-1676 -139,-2892zm1447 -415c-139,1264 -92,2390 137,3378 230,989 609,1688 1138,2103 525,411 1066,494 1619,240 548,-252 951,-759 1203,-1516 254,-759 379,-1585 379,-2482 0,-894 -35,-1711 -106,-2446 -67,-735 -273,-1400 -619,-1996 -344,-597 -802,-909 -1375,-932 -576,-24 -1078,265 -1515,862 -435,596 -724,1528 -861,2789z"/>
  <path id="12" class="fil3" d="M977298 752164l-758 759c-1146,-1103 -2007,-2250 -2582,-3446 -574,-1194 -861,-2550 -861,-4064 0,-1516 287,-2871 861,-4065 575,-1194 1436,-2367 2582,-3517l758 759c-1055,1011 -1848,2058 -2377,3137 -526,1079 -791,2308 -791,3686 0,1377 265,2605 791,3688 529,1079 1322,2099 2377,3063z"/>
  <polygon id="123" class="fil3" points="986112,745758 978262,745758 978262,744655 986112,744655 "/>
  <path id="1234" class="fil3" d="M991343 745413c0,1514 -285,2870 -861,4064 -572,1196 -1433,2343 -2582,3446l-755 -759c1055,-964 1848,-1984 2374,-3063 529,-1083 793,-2311 793,-3688 0,-1378 -264,-2607 -793,-3686 -526,-1079 -1319,-2126 -2374,-3137l755 -759c1149,1150 2010,2323 2582,3517 576,1194 861,2549 861,4065z"/>
  <line class="fil5 str1" x1="999695" y1="756702" x2="777328" y2= "756702" />
  <path class="fil0 str2" d="M944593 756702c0,2116 -1727,3842 -3845,3842 -2118,0 -3845,-1726 -3845,-3842 0,-2117 1727,-3843 3845,-3843 2118,0 3845,1726 3845,3843 0,0 0,0 0,0z"/>
  <polygon class="fil5 str4" points="772351,736352 772351,712168 783962,712168 783962,736352 "/>
  <line class="fil5 str1" x1="778157" y1="712301" x2="778157" y2= "664157" />
  <polygon class="fil4" points="784296,726260 788699,724490 793103,722722 793103,726260 793103,729798 788699,728029 "/>
  <line class="fil5 str1" x1="778156" y1="756702" x2="778156" y2= "736352" />
  <line class="fil5 str1" x1="939717" y1="725894" x2="792351" y2= "725894" />
  <line class="fil5 str1" x1="1.10652e+006" y1="650610" x2="1.16692e+006" y2= "650610" />
  <line class="fil5 str1" x1="1.10647e+006" y1="699240" x2="1.16815e+006" y2= "699240" />
  <path class="fil3" d="M1.13036e+006 641399l-5303 0 0 -1173 5579 -8062 1032 0 0 8062 1653 0 0 1173 -1653 0 0 2617 -1308 0 0 -2617zm0 -1173l0 -5442 -3854 5442 3854 0z"/>
  <path id="1" class="fil3" d="M1.14186e+006 644980l-758 759c-1146,-1103 -2007,-2250 -2582,-3446 -574,-1194 -861,-2550 -861,-4064 0,-1516 287,-2871 861,-4065 575,-1194 1436,-2367 2582,-3517l758 759c-1055,1011 -1848,2058 -2377,3137 -526,1079 -791,2308 -791,3686 0,1377 265,2605 791,3688 529,1079 1322,2099 2377,3063z"/>
  <polygon id="12" class="fil3" points="1.15068e+006,638574 1.14283e+006,638574 1.14283e+006,637471 1.15068e+006,637471 "/>
  <path id="123" class="fil3" d="M1.15591e+006 638229c0,1514 -285,2870 -861,4064 -572,1196 -1433,2343 -2582,3446l-755 -759c1055,-964 1848,-1984 2374,-3063 529,-1083 793,-2311 793,-3688 0,-1378 -264,-2607 -793,-3686 -526,-1079 -1319,-2126 -2374,-3137l755 -759c1149,1150 2010,2323 2582,3517 576,1194 861,2549 861,4065z"/>
  <path class="fil3" d="M1.12552e+006 690090l1240 -208c186,596 482,1089 896,1481 415,391 928,574 1549,553 619,-24 1113,-277 1480,-759 367,-482 529,-1035 482,-1655 -44,-621 -285,-1103 -722,-1446 -435,-344 -1138,-586 -2101,-724l0 -896c963,-92 1666,-345 2101,-756 437,-415 631,-955 584,-1620 -45,-668 -344,-1150 -893,-1446 -552,-301 -1138,-336 -1757,-106 -619,232 -1113,873 -1480,1932l-1240 -209c275,-827 654,-1514 1136,-2067 483,-550 1137,-874 1963,-965 826,-90 1548,12 2168,312 620,297 1058,755 1310,1376 250,620 285,1299 103,2035 -185,734 -711,1375 -1583,1928 640,277 1134,688 1480,1241 344,550 459,1272 344,2170 -114,896 -517,1619 -1205,2169 -690,553 -1469,817 -2341,793 -872,-23 -1631,-299 -2274,-825 -640,-529 -1054,-1300 -1240,-2308z"/>
  <path id="1" class="fil3" d="M1.14184e+006 694015l-758 759c-1146,-1103 -2007,-2250 -2582,-3446 -574,-1194 -861,-2550 -861,-4064 0,-1516 287,-2871 861,-4065 575,-1194 1436,-2367 2582,-3517l758 759c-1055,1011 -1848,2058 -2377,3137 -526,1079 -791,2308 -791,3686 0,1377 265,2605 791,3688 529,1079 1322,2099 2377,3063z"/>
  <polygon id="12" class="fil3" points="1.15072e+006,687609 1.14734e+006,687609 1.14734e+006,690983 1.14618e+006,690983 1.14618e+006,687609 1.1428e+006,687609 1.1428e+006,686506 1.14618e+006,686506 1.14618e+006,683128 1.14734e+006,683128 1.14734e+006,686506 1.15072e+006,686506 "/>
  <path id="123" class="fil3" d="M1.15588e+006 687264c0,1514 -285,2870 -861,4064 -572,1196 -1433,2343 -2582,3446l-755 -759c1055,-964 1848,-1984 2374,-3063 529,-1083 793,-2311 793,-3688 0,-1378 -264,-2607 -793,-3686 -526,-1079 -1319,-2126 -2374,-3137l755 -759c1149,1150 2010,2323 2582,3517 576,1194 861,2549 861,4065z"/>
  <path class="fil0 str2" d="M944593 725691c0,2117 -1727,3843 -3845,3843 -2118,0 -3845,-1726 -3845,-3843 0,-2116 1727,-3842 3845,-3842 2118,0 3845,1726 3845,3842 0,0 0,0 0,0z"/>
  <path class="fil3" d="M955334 711444c-599,596 -1354,1170 -2273,1722l0 -1308c1148,-782 2089,-1702 2823,-2758l826 0 0 11852 -1376 0 0 -9508z"/>
  <path id="1" class="fil3" d="M964148 711444c-599,596 -1354,1170 -2273,1722l0 -1308c1148,-782 2089,-1702 2823,-2758l826 0 0 11852 -1376 0 0 -9508z"/>
  <path id="12" class="fil3" d="M977298 721916l-758 759c-1146,-1103 -2007,-2250 -2582,-3446 -574,-1194 -861,-2550 -861,-4064 0,-1516 287,-2871 861,-4065 575,-1194 1436,-2367 2582,-3517l758 759c-1055,1011 -1848,2058 -2377,3137 -526,1079 -791,2308 -791,3686 0,1377 265,2605 791,3688 529,1079 1322,2099 2377,3063z"/>
  <path id="123" class="fil3" d="M991343 715165c0,1514 -285,2870 -861,4064 -572,1196 -1433,2343 -2582,3446l-755 -759c1055,-964 1848,-1984 2374,-3063 529,-1083 793,-2311 793,-3688 0,-1378 -264,-2607 -793,-3686 -526,-1079 -1319,-2126 -2374,-3137l755 -759c1149,1150 2010,2323 2582,3517 576,1194 861,2549 861,4065z"/>
  <polygon id="1234" class="fil3" points="986112,715510 978262,715510 978262,714407 986112,714407 "/>
  <path class="fil5 str5" d="M944593 725691c55780,0 55780,0 55780,0"/>
  <path class="fil0 str2" d="M944593 694153c0,2117 -1727,3843 -3845,3843 -2118,0 -3845,-1726 -3845,-3843 0,-2116 1727,-3842 3845,-3842 2118,0 3845,1726 3845,3842 0,0 0,0 0,0z"/>
  <path class="fil3" d="M955334 679906c-599,596 -1354,1170 -2273,1722l0 -1308c1148,-782 2089,-1702 2823,-2758l826 0 0 11852 -1376 0 0 -9508z"/>
  <path id="1" class="fil3" d="M961117 689140c47,-691 367,-1311 963,-1861 599,-552 1355,-1414 2274,-2585 916,-1173 1513,-2078 1789,-2722 276,-644 379,-1193 311,-1652 -70,-462 -287,-840 -655,-1138 -367,-299 -793,-426 -1275,-379 -482,47 -939,230 -1374,550 -438,324 -770,806 -1000,1450l-1306 -209c367,-1056 837,-1826 1409,-2308 573,-482 1252,-747 2031,-791 461,-47 873,-35 1240,32 367,70 746,232 1136,482 391,253 711,632 964,1138 253,506 343,1114 276,1826 -70,712 -426,1563 -1067,2548 -643,989 -1883,2541 -3719,4652l4956 0 0 1241 -6953 0 0 -274z"/>
  <path id="12" class="fil3" d="M977298 690378l-758 759c-1146,-1103 -2007,-2250 -2582,-3446 -574,-1194 -861,-2550 -861,-4064 0,-1516 287,-2871 861,-4065 575,-1194 1436,-2367 2582,-3517l758 759c-1055,1011 -1848,2058 -2377,3137 -526,1079 -791,2308 -791,3686 0,1377 265,2605 791,3688 529,1079 1322,2099 2377,3063z"/>
  <path id="123" class="fil3" d="M991343 683627c0,1514 -285,2870 -861,4064 -572,1196 -1433,2343 -2582,3446l-755 -759c1055,-964 1848,-1984 2374,-3063 529,-1083 793,-2311 793,-3688 0,-1378 -264,-2607 -793,-3686 -526,-1079 -1319,-2126 -2374,-3137l755 -759c1149,1150 2010,2323 2582,3517 576,1194 861,2549 861,4065z"/>
  <polygon id="1234" class="fil3" points="986182,683972 982807,683972 982807,687346 981638,687346 981638,683972 978262,683972 978262,682869 981638,682869 981638,679491 982807,679491 982807,682869 986182,682869 "/>
  <path class="fil5 str5" d="M944593 694153c55780,0 55780,0 55780,0"/>
  <path class="fil5 str5" d="M936903 694153c-158746,0 -158746,0 -158746,0"/>
  <path class="fil4 str3" d="M778157 691677c-1367,0 -2476,1108 -2476,2475 0,1367 1109,2476 2476,2476 1367,0 2475,-1109 2475,-2476 0,-1367 -1108,-2475 -2475,-2475z"/>
  <path class="fil3" d="M757385 779491l2075 0 1473 -5647c137,-501 259,-1005 376,-1509 112,-505 229,-1026 342,-1556l97 0c122,530 239,1045 352,1543 110,498 233,992 365,1484l1532 5685 2133 0 2830 -10535 -1666 0 -1552 6091c-113,502 -223,997 -330,1482 -103,485 -213,976 -329,1468l-78 0c-125,-492 -249,-983 -369,-1468 -118,-485 -242,-980 -367,-1482l-1648 -6091 -1726 0 -1629 6091c-132,496 -259,987 -371,1475 -117,489 -230,980 -346,1475l-97 0c-97,-492 -198,-983 -304,-1468 -103,-485 -210,-980 -317,-1482l-1570 -6091 -1803 0 2927 10535z"/>
  <path id="1" class="fil3" d="M771266 779491l1765 0 0 -10535 -1765 0 0 10535zm893 -12709c235,-3 442,-52 627,-153 184,-96 326,-232 433,-403 107,-172 158,-369 161,-589 -3,-239 -54,-446 -161,-618 -107,-168 -249,-300 -433,-390 -185,-91 -392,-137 -627,-137 -236,0 -443,46 -628,137 -184,90 -326,222 -433,390 -105,172 -158,379 -161,618 3,220 56,417 161,589 107,171 249,307 433,403 185,101 392,150 628,153z"/>
  <path id="12" class="fil3" d="M776598 779491l1765 0 0 -6772c236,-598 504,-1076 805,-1432 300,-356 611,-611 931,-766 319,-156 627,-231 920,-227 140,0 265,3 379,16 113,10 219,26 323,51 103,27 210,63 326,107l330 -1552c-161,-87 -334,-145 -510,-181 -181,-35 -385,-51 -614,-51 -395,3 -776,94 -1138,272 -362,177 -698,430 -1009,756 -313,326 -594,715 -840,1164l-58 0 -155 -1920 -1455 0 0 10535z"/>
  <path id="123" class="fil3" d="M788154 779743c479,-3 925,-51 1335,-148 413,-97 798,-227 1157,-389 355,-165 688,-346 998,-549l-640 -1165c-384,266 -791,470 -1224,615 -430,145 -902,216 -1413,219 -668,-3 -1257,-155 -1768,-455 -507,-301 -910,-725 -1208,-1275 -300,-549 -471,-1203 -514,-1956l7096 0c20,-130 40,-278 56,-453 12,-174 22,-359 22,-555 -3,-1010 -165,-1883 -491,-2620 -326,-738 -798,-1310 -1422,-1714 -623,-405 -1380,-608 -2274,-614 -492,0 -970,84 -1433,249 -464,164 -894,403 -1295,721 -401,313 -753,699 -1054,1151 -303,449 -539,963 -710,1540 -168,575 -255,1203 -259,1888 4,870 136,1646 394,2325 259,682 621,1257 1080,1733 458,472 995,831 1602,1080 608,247 1263,369 1965,372zm-3297 -6364c56,-520 175,-983 353,-1387 181,-408 408,-751 679,-1032 274,-281 582,-495 921,-640 339,-145 698,-221 1072,-221 553,0 1022,127 1413,376 388,249 688,618 892,1106 206,485 313,1087 313,1798l-5643 0z"/>
  <path id="1234" class="fil3" d="M704615 806384l1803 0 0 -5647 2347 0c778,0 1485,-87 2125,-265 641,-178 1193,-446 1655,-807 466,-363 821,-822 1073,-1376 252,-552 378,-1206 381,-1956 -3,-773 -129,-1429 -384,-1962 -252,-534 -611,-964 -1083,-1287 -468,-328 -1027,-560 -1680,-709 -653,-146 -1383,-217 -2185,-214l-4052 0 0 14223zm1803 -7102l0 -5666 2036 0c834,-6 1529,78 2087,247 557,171 977,452 1255,850 280,398 420,938 420,1620 3,1015 -298,1760 -906,2238 -604,479 -1531,715 -2779,711l-2113 0z"/>
  <path id="12345" class="fil3" d="M720281 806636c650,0 1266,-125 1852,-369 585,-245 1105,-605 1557,-1076 455,-473 814,-1048 1076,-1730 262,-682 395,-1462 401,-2335 -6,-880 -139,-1662 -401,-2348 -262,-689 -621,-1268 -1076,-1743 -452,-476 -972,-837 -1557,-1087 -586,-246 -1202,-371 -1852,-371 -649,0 -1267,125 -1851,371 -586,250 -1103,611 -1558,1087 -456,475 -815,1054 -1076,1743 -262,686 -394,1468 -401,2348 7,873 139,1653 401,2335 261,682 620,1257 1076,1730 455,471 972,831 1558,1076 584,244 1202,369 1851,369zm0 -1475c-611,-3 -1144,-174 -1599,-507 -456,-333 -809,-802 -1060,-1404 -252,-605 -382,-1313 -386,-2124 0,-608 75,-1161 221,-1659 145,-498 349,-928 617,-1287 269,-362 591,-637 963,-835 371,-193 788,-290 1244,-294 459,4 872,101 1248,294 374,198 698,473 969,835 268,359 478,789 623,1287 150,498 224,1051 224,1659 -4,811 -133,1519 -389,2124 -255,602 -614,1071 -1069,1404 -459,333 -995,504 -1606,507z"/>
  <path id="123456" class="fil3" d="M730886 806636c323,-3 650,-45 983,-122 333,-75 652,-166 957,-265l-349 -1320c-181,71 -379,132 -595,188 -217,51 -418,81 -607,84 -405,0 -728,-81 -967,-240 -239,-159 -408,-388 -510,-692 -104,-304 -156,-673 -153,-1106l0 -5879 2850 0 0 -1435 -2850 0 0 -2950 -1474 0 -212 2950 -1648 97 0 1338 1570 0 0 5841c-3,707 88,1325 282,1849 189,524 504,932 946,1222 440,288 1031,437 1777,440z"/>
  <path id="1234567" class="fil3" d="M738836 806636c479,-3 925,-51 1335,-148 413,-97 798,-227 1157,-389 355,-165 688,-346 998,-549l-640 -1165c-384,266 -791,470 -1224,615 -430,145 -902,216 -1413,219 -668,-3 -1257,-155 -1768,-455 -507,-301 -910,-725 -1208,-1275 -300,-549 -471,-1203 -514,-1956l7096 0c20,-130 40,-278 56,-453 12,-174 22,-359 22,-555 -3,-1010 -165,-1883 -491,-2620 -326,-738 -798,-1310 -1422,-1714 -623,-405 -1380,-608 -2274,-614 -492,0 -970,84 -1433,249 -464,164 -894,403 -1295,721 -401,313 -753,699 -1054,1151 -303,449 -539,963 -710,1540 -168,575 -255,1203 -259,1888 4,870 136,1646 394,2325 259,682 621,1257 1080,1733 458,472 995,831 1602,1080 608,247 1263,369 1965,372zm-3297 -6364c56,-520 175,-983 353,-1387 181,-408 408,-751 679,-1032 274,-281 582,-495 921,-640 339,-145 698,-221 1072,-221 553,0 1022,127 1413,376 388,249 688,618 892,1106 206,485 313,1087 313,1798l-5643 0z"/>
  <path id="12345678" class="fil3" d="M745331 806384l1765 0 0 -7645c353,-356 679,-653 983,-892 303,-240 608,-418 911,-537 307,-123 637,-181 996,-181 464,-3 843,94 1136,288 298,197 515,501 654,915 138,417 210,950 207,1610l0 6442 1764 0 0 -6675c3,-1351 -256,-2377 -779,-3078 -527,-698 -1338,-1051 -2440,-1054 -475,3 -918,84 -1328,242 -411,158 -795,372 -1157,641 -362,267 -711,568 -1044,901l-58 0 -155 -1512 -1455 0 0 10535z"/>
  <path id="123456789" class="fil3" d="M760493 806636c323,-3 650,-45 983,-122 333,-75 652,-166 957,-265l-349 -1320c-181,71 -379,132 -595,188 -217,51 -418,81 -607,84 -405,0 -728,-81 -967,-240 -239,-159 -408,-388 -510,-692 -104,-304 -156,-673 -153,-1106l0 -5879 2850 0 0 -1435 -2850 0 0 -2950 -1474 0 -212 2950 -1648 97 0 1338 1570 0 0 5841c-3,707 88,1325 282,1849 189,524 504,932 946,1222 440,288 1031,437 1777,440z"/>
  <path id="12345678910" class="fil3" d="M764487 806384l1765 0 0 -10535 -1765 0 0 10535zm893 -12709c235,-3 442,-52 627,-153 184,-96 326,-232 433,-403 107,-172 158,-369 161,-589 -3,-239 -54,-446 -161,-618 -107,-168 -249,-300 -433,-390 -185,-91 -392,-137 -627,-137 -236,0 -443,46 -628,137 -184,90 -326,222 -433,390 -105,172 -158,379 -161,618 3,220 56,417 161,589 107,171 249,307 433,403 185,101 392,150 628,153z"/>
  <path id="1234567891011" class="fil3" d="M773911 806636c650,0 1266,-125 1852,-369 585,-245 1105,-605 1557,-1076 455,-473 814,-1048 1076,-1730 262,-682 395,-1462 401,-2335 -6,-880 -139,-1662 -401,-2348 -262,-689 -621,-1268 -1076,-1743 -452,-476 -972,-837 -1557,-1087 -586,-246 -1202,-371 -1852,-371 -649,0 -1267,125 -1851,371 -586,250 -1103,611 -1558,1087 -456,475 -815,1054 -1076,1743 -262,686 -394,1468 -401,2348 7,873 139,1653 401,2335 261,682 620,1257 1076,1730 455,471 972,831 1558,1076 584,244 1202,369 1851,369zm0 -1475c-611,-3 -1144,-174 -1599,-507 -456,-333 -809,-802 -1060,-1404 -252,-605 -382,-1313 -386,-2124 0,-608 75,-1161 221,-1659 145,-498 349,-928 617,-1287 269,-362 591,-637 963,-835 371,-193 788,-290 1244,-294 459,4 872,101 1248,294 374,198 698,473 969,835 268,359 478,789 623,1287 150,498 224,1051 224,1659 -4,811 -133,1519 -389,2124 -255,602 -614,1071 -1069,1404 -459,333 -995,504 -1606,507z"/>
  <path id="123456789101112" class="fil3" d="M781569 806384l1765 0 0 -7645c485,-543 950,-948 1393,-1213 446,-265 866,-397 1263,-397 446,-3 815,94 1103,288 290,197 504,501 646,915 141,417 210,950 210,1610l0 6442 1764 0 0 -7645c492,-543 957,-948 1393,-1213 436,-265 859,-397 1264,-397 445,-3 814,94 1102,288 291,197 504,501 645,915 143,417 211,950 211,1610l0 6442 1765 0 0 -6675c3,-1351 -259,-2377 -786,-3078 -526,-698 -1331,-1051 -2413,-1054 -427,3 -835,90 -1229,258 -391,172 -772,408 -1144,709 -372,303 -737,653 -1098,1050 -140,-417 -336,-776 -586,-1076 -252,-302 -565,-531 -950,-696 -381,-161 -837,-242 -1373,-245 -420,3 -824,84 -1209,242 -380,158 -746,376 -1092,647 -345,268 -672,576 -976,915l-58 0 -155 -1532 -1455 0 0 10535z"/>
  <path id="12345678910111213" class="fil3" d="M803770 806636c479,-3 925,-51 1335,-148 413,-97 798,-227 1157,-389 355,-165 688,-346 998,-549l-640 -1165c-384,266 -791,470 -1224,615 -430,145 -902,216 -1413,219 -668,-3 -1257,-155 -1768,-455 -507,-301 -910,-725 -1208,-1275 -300,-549 -471,-1203 -514,-1956l7096 0c20,-130 40,-278 56,-453 12,-174 22,-359 22,-555 -3,-1010 -165,-1883 -491,-2620 -326,-738 -798,-1310 -1422,-1714 -623,-405 -1380,-608 -2274,-614 -492,0 -970,84 -1433,249 -464,164 -894,403 -1295,721 -401,313 -753,699 -1054,1151 -303,449 -539,963 -710,1540 -168,575 -255,1203 -259,1888 4,870 136,1646 394,2325 259,682 621,1257 1080,1733 458,472 995,831 1602,1080 608,247 1263,369 1965,372zm-3297 -6364c56,-520 175,-983 353,-1387 181,-408 408,-751 679,-1032 274,-281 582,-495 921,-640 339,-145 698,-221 1072,-221 553,0 1022,127 1413,376 388,249 688,618 892,1106 206,485 313,1087 313,1798l-5643 0z"/>
  <path id="1234567891011121314" class="fil3" d="M813367 806636c323,-3 650,-45 983,-122 333,-75 652,-166 957,-265l-349 -1320c-181,71 -379,132 -595,188 -217,51 -418,81 -607,84 -405,0 -728,-81 -967,-240 -239,-159 -408,-388 -510,-692 -104,-304 -156,-673 -153,-1106l0 -5879 2850 0 0 -1435 -2850 0 0 -2950 -1474 0 -212 2950 -1648 97 0 1338 1570 0 0 5841c-3,707 88,1325 282,1849 189,524 504,932 946,1222 440,288 1031,437 1777,440z"/>
  <path id="123456789101112131415" class="fil3" d="M821317 806636c479,-3 925,-51 1335,-148 413,-97 798,-227 1157,-389 355,-165 688,-346 998,-549l-640 -1165c-384,266 -791,470 -1224,615 -430,145 -902,216 -1413,219 -668,-3 -1257,-155 -1768,-455 -507,-301 -910,-725 -1208,-1275 -300,-549 -471,-1203 -514,-1956l7096 0c20,-130 40,-278 56,-453 12,-174 22,-359 22,-555 -3,-1010 -165,-1883 -491,-2620 -326,-738 -798,-1310 -1422,-1714 -623,-405 -1380,-608 -2274,-614 -492,0 -970,84 -1433,249 -464,164 -894,403 -1295,721 -401,313 -753,699 -1054,1151 -303,449 -539,963 -710,1540 -168,575 -255,1203 -259,1888 4,870 136,1646 394,2325 259,682 621,1257 1080,1733 458,472 995,831 1602,1080 608,247 1263,369 1965,372zm-3297 -6364c56,-520 175,-983 353,-1387 181,-408 408,-751 679,-1032 274,-281 582,-495 921,-640 339,-145 698,-221 1072,-221 553,0 1022,127 1413,376 388,249 688,618 892,1106 206,485 313,1087 313,1798l-5643 0z"/>
  <path id="12345678910111213141516" class="fil3" d="M827812 806384l1765 0 0 -6772c236,-598 504,-1076 805,-1432 300,-356 611,-611 931,-766 319,-156 627,-231 920,-227 140,0 265,3 379,16 113,10 219,26 323,51 103,27 210,63 326,107l330 -1552c-161,-87 -334,-145 -510,-181 -181,-35 -385,-51 -614,-51 -395,3 -776,94 -1138,272 -362,177 -698,430 -1009,756 -313,326 -594,715 -840,1164l-58 0 -155 -1920 -1455 0 0 10535z"/>
  <path id="1234567891011121314151617" class="fil3" d="M739451 774640l2943 -4411c185,-316 364,-634 541,-951 173,-318 340,-636 499,-953l71 0c-12,226 -27,482 -45,764 -14,282 -29,562 -41,841 -11,276 -20,523 -20,741l0 3969 -3948 0zm7191 0l-1709 0 0 -8079 -1781 0 -5377 8308 0 1058 5624 0 0 3564 1534 0 0 -3564 1709 0 0 -1287z"/>
  <polygon id="123456789101112131415161718" class="fil3" points="748098,774737 753061,774737 753061,773379 748098,773379 "/>
  <path class="fil6" d="M1.18306e+006 839032l1803 0 0 -5647 2347 0c778,0 1485,-87 2125,-265 641,-178 1193,-446 1655,-807 466,-363 821,-822 1073,-1376 252,-552 378,-1206 381,-1956 -3,-773 -129,-1429 -384,-1962 -252,-534 -611,-964 -1083,-1287 -468,-328 -1027,-560 -1680,-709 -653,-146 -1383,-217 -2185,-214l-4052 0 0 14223zm1803 -7102l0 -5666 2036 0c834,-6 1529,78 2087,247 557,171 977,452 1255,850 280,398 420,938 420,1620 3,1015 -298,1760 -906,2238 -604,479 -1531,715 -2779,711l-2113 0z"/>
  <path id="1" class="fil6" d="M1.19873e+006 839284c650,0 1266,-125 1852,-369 585,-245 1105,-605 1557,-1076 455,-473 814,-1048 1076,-1730 262,-682 395,-1462 401,-2335 -6,-880 -139,-1662 -401,-2348 -262,-689 -621,-1268 -1076,-1743 -452,-476 -972,-837 -1557,-1087 -586,-246 -1202,-371 -1852,-371 -649,0 -1267,125 -1851,371 -586,250 -1103,611 -1558,1087 -456,475 -815,1054 -1076,1743 -262,686 -394,1468 -401,2348 7,873 139,1653 401,2335 261,682 620,1257 1076,1730 455,471 972,831 1558,1076 584,244 1202,369 1851,369zm0 -1475c-611,-3 -1144,-174 -1599,-507 -456,-333 -809,-802 -1060,-1404 -252,-605 -382,-1313 -386,-2124 0,-608 75,-1161 221,-1659 145,-498 349,-928 617,-1287 269,-362 591,-637 963,-835 371,-193 788,-290 1244,-294 459,4 872,101 1248,294 374,198 698,473 969,835 268,359 478,789 623,1287 150,498 224,1051 224,1659 -4,811 -133,1519 -389,2124 -255,602 -614,1071 -1069,1404 -459,333 -995,504 -1606,507z"/>
  <path id="12" class="fil6" d="M1.20798e+006 839032l2075 0 1473 -5647c137,-501 259,-1005 376,-1509 112,-505 229,-1026 342,-1556l97 0c122,530 239,1045 352,1543 110,498 233,992 365,1484l1532 5685 2133 0 2830 -10535 -1666 0 -1552 6091c-113,502 -223,997 -330,1482 -103,485 -213,976 -329,1468l-78 0c-125,-492 -249,-983 -369,-1468 -118,-485 -242,-980 -367,-1482l-1648 -6091 -1726 0 -1629 6091c-132,496 -259,987 -371,1475 -117,489 -230,980 -346,1475l-97 0c-97,-492 -198,-983 -304,-1468 -103,-485 -210,-980 -317,-1482l-1570 -6091 -1803 0 2927 10535z"/>
  <path id="123" class="fil6" d="M1.22603e+006 839284c479,-3 925,-51 1335,-148 413,-97 798,-227 1157,-389 355,-165 688,-346 998,-549l-640 -1165c-384,266 -791,470 -1224,615 -430,145 -902,216 -1413,219 -668,-3 -1257,-155 -1768,-455 -507,-301 -910,-725 -1208,-1275 -300,-549 -471,-1203 -514,-1956l7096 0c20,-130 40,-278 56,-453 12,-174 22,-359 22,-555 -3,-1010 -165,-1883 -491,-2620 -326,-738 -798,-1310 -1422,-1714 -623,-405 -1380,-608 -2274,-614 -492,0 -970,84 -1433,249 -464,164 -894,403 -1295,721 -401,313 -753,699 -1054,1151 -303,449 -539,963 -710,1540 -168,575 -255,1203 -259,1888 4,870 136,1646 394,2325 259,682 621,1257 1080,1733 458,472 995,831 1602,1080 608,247 1263,369 1965,372zm-3297 -6364c56,-520 175,-983 353,-1387 181,-408 408,-751 679,-1032 274,-281 582,-495 921,-640 339,-145 698,-221 1072,-221 553,0 1022,127 1413,376 388,249 688,618 892,1106 206,485 313,1087 313,1798l-5643 0z"/>
  <path id="1234" class="fil6" d="M1.23252e+006 839032l1765 0 0 -6772c236,-598 504,-1076 805,-1432 300,-356 611,-611 931,-766 319,-156 627,-231 920,-227 140,0 265,3 379,16 113,10 219,26 323,51 103,27 210,63 326,107l330 -1552c-161,-87 -334,-145 -510,-181 -181,-35 -385,-51 -614,-51 -395,3 -776,94 -1138,272 -362,177 -698,430 -1009,756 -313,326 -594,715 -840,1164l-58 0 -155 -1920 -1455 0 0 10535z"/>
  <path class="fil3" d="M1.08973e+006 910284l1803 0 0 -5647 2347 0c778,0 1485,-87 2125,-265 641,-178 1193,-446 1655,-807 466,-363 821,-822 1073,-1376 252,-552 378,-1206 381,-1956 -3,-773 -129,-1429 -384,-1962 -252,-534 -611,-964 -1083,-1287 -468,-328 -1027,-560 -1680,-709 -653,-146 -1383,-217 -2185,-214l-4052 0 0 14223zm1803 -7102l0 -5666 2036 0c834,-6 1529,78 2087,247 557,171 977,452 1255,850 280,398 420,938 420,1620 3,1015 -298,1760 -906,2238 -604,479 -1531,715 -2779,711l-2113 0z"/>
  <path id="1" class="fil3" d="M1.1054e+006 910536c650,0 1266,-125 1852,-369 585,-245 1105,-605 1557,-1076 455,-473 814,-1048 1076,-1730 262,-682 395,-1462 401,-2335 -6,-880 -139,-1662 -401,-2348 -262,-689 -621,-1268 -1076,-1743 -452,-476 -972,-837 -1557,-1087 -586,-246 -1202,-371 -1852,-371 -649,0 -1267,125 -1851,371 -586,250 -1103,611 -1558,1087 -456,475 -815,1054 -1076,1743 -262,686 -394,1468 -401,2348 7,873 139,1653 401,2335 261,682 620,1257 1076,1730 455,471 972,831 1558,1076 584,244 1202,369 1851,369zm0 -1475c-611,-3 -1144,-174 -1599,-507 -456,-333 -809,-802 -1060,-1404 -252,-605 -382,-1313 -386,-2124 0,-608 75,-1161 221,-1659 145,-498 349,-928 617,-1287 269,-362 591,-637 963,-835 371,-193 788,-290 1244,-294 459,4 872,101 1248,294 374,198 698,473 969,835 268,359 478,789 623,1287 150,498 224,1051 224,1659 -4,811 -133,1519 -389,2124 -255,602 -614,1071 -1069,1404 -459,333 -995,504 -1606,507z"/>
  <path id="12" class="fil3" d="M1.11465e+006 910284l2075 0 1473 -5647c137,-501 259,-1005 376,-1509 112,-505 229,-1026 342,-1556l97 0c122,530 239,1045 352,1543 110,498 233,992 365,1484l1532 5685 2133 0 2830 -10535 -1666 0 -1552 6091c-113,502 -223,997 -330,1482 -103,485 -213,976 -329,1468l-78 0c-125,-492 -249,-983 -369,-1468 -118,-485 -242,-980 -367,-1482l-1648 -6091 -1726 0 -1629 6091c-132,496 -259,987 -371,1475 -117,489 -230,980 -346,1475l-97 0c-97,-492 -198,-983 -304,-1468 -103,-485 -210,-980 -317,-1482l-1570 -6091 -1803 0 2927 10535z"/>
  <path id="123" class="fil3" d="M1.1327e+006 910536c479,-3 925,-51 1335,-148 413,-97 798,-227 1157,-389 355,-165 688,-346 998,-549l-640 -1165c-384,266 -791,470 -1224,615 -430,145 -902,216 -1413,219 -668,-3 -1257,-155 -1768,-455 -507,-301 -910,-725 -1208,-1275 -300,-549 -471,-1203 -514,-1956l7096 0c20,-130 40,-278 56,-453 12,-174 22,-359 22,-555 -3,-1010 -165,-1883 -491,-2620 -326,-738 -798,-1310 -1422,-1714 -623,-405 -1380,-608 -2274,-614 -492,0 -970,84 -1433,249 -464,164 -894,403 -1295,721 -401,313 -753,699 -1054,1151 -303,449 -539,963 -710,1540 -168,575 -255,1203 -259,1888 4,870 136,1646 394,2325 259,682 621,1257 1080,1733 458,472 995,831 1602,1080 608,247 1263,369 1965,372zm-3297 -6364c56,-520 175,-983 353,-1387 181,-408 408,-751 679,-1032 274,-281 582,-495 921,-640 339,-145 698,-221 1072,-221 553,0 1022,127 1413,376 388,249 688,618 892,1106 206,485 313,1087 313,1798l-5643 0z"/>
  <path id="1234" class="fil3" d="M1.13919e+006 910284l1765 0 0 -6772c236,-598 504,-1076 805,-1432 300,-356 611,-611 931,-766 319,-156 627,-231 920,-227 140,0 265,3 379,16 113,10 219,26 323,51 103,27 210,63 326,107l330 -1552c-161,-87 -334,-145 -510,-181 -181,-35 -385,-51 -614,-51 -395,3 -776,94 -1138,272 -362,177 -698,430 -1009,756 -313,326 -594,715 -840,1164l-58 0 -155 -1920 -1455 0 0 10535z"/>
  <path id="12345" class="fil3" d="M1.15121e+006 910284l4537 0c798,0 1526,-87 2185,-259 655,-174 1224,-433 1702,-779 479,-346 847,-783 1108,-1303 259,-521 392,-1132 395,-1831 -3,-646 -130,-1203 -375,-1669 -245,-465 -585,-844 -1021,-1132 -436,-287 -940,-484 -1512,-595l0 -97c445,-145 827,-371 1137,-675 311,-304 550,-660 711,-1073 161,-415 245,-861 245,-1336 -3,-625 -122,-1159 -355,-1597 -236,-444 -572,-803 -1005,-1078 -433,-278 -946,-479 -1544,-608 -595,-130 -1258,-194 -1981,-191l-4227 0 0 14223zm1803 -8169l0 -4637 2191 0c737,-3 1354,71 1852,223 497,149 872,395 1124,731 252,336 379,783 379,1335 3,483 -114,896 -346,1246 -237,352 -604,621 -1112,812 -505,190 -1163,287 -1975,290l-2113 0zm0 6734l0 -5357 2482 0c831,0 1531,91 2110,272 575,181 1015,463 1316,842 300,378 451,860 451,1448 -3,640 -154,1164 -461,1579 -308,413 -747,717 -1325,918 -575,200 -1273,298 -2091,298l-2482 0z"/>
  <path id="123456" class="fil3" d="M1.16686e+006 910536c481,-3 927,-81 1332,-239 404,-155 785,-375 1137,-660 352,-284 694,-617 1022,-1002l58 0 135 1649 1473 0 0 -10535 -1763 0 0 7469c-333,421 -647,761 -947,1023 -298,265 -598,458 -905,581 -307,123 -640,182 -999,182 -465,3 -840,-94 -1134,-289 -291,-194 -504,-497 -640,-911 -139,-411 -203,-944 -203,-1595l0 -6460 -1765 0 0 6674c-3,1342 252,2363 772,3059 517,698 1329,1051 2427,1054z"/>
  <path id="1234567" class="fil3" d="M1.17832e+006 910536c619,-3 1169,-87 1648,-249 474,-161 874,-385 1202,-672 326,-288 571,-618 736,-993 168,-378 252,-780 252,-1210 -3,-494 -100,-915 -287,-1261 -188,-346 -436,-634 -747,-870 -313,-236 -656,-436 -1034,-604 -379,-168 -763,-324 -1151,-466 -297,-111 -585,-220 -863,-333 -273,-110 -523,-233 -743,-369 -219,-136 -393,-294 -523,-475 -129,-181 -194,-398 -198,-647 0,-275 69,-527 204,-753 139,-230 350,-411 634,-551 281,-135 643,-206 1082,-209 473,3 902,90 1293,262 391,168 765,391 1131,669l853 -1145c-278,-216 -588,-414 -931,-592 -342,-178 -711,-319 -1105,-426 -394,-107 -808,-162 -1241,-165 -571,3 -1082,80 -1531,232 -450,152 -828,363 -1138,634 -313,272 -550,589 -711,951 -161,359 -245,750 -245,1170 6,443 100,829 284,1152 185,326 430,605 733,837 308,234 644,433 1012,605 368,168 740,321 1112,453 293,110 581,226 866,349 284,127 542,262 772,417 233,155 417,330 552,534 140,201 211,433 214,698 0,307 -74,585 -226,834 -153,247 -382,443 -688,590 -311,148 -695,222 -1161,226 -416,0 -808,-55 -1167,-159 -358,-103 -701,-249 -1021,-433 -319,-184 -630,-402 -933,-651l-873 1165c339,282 718,531 1138,747 420,220 866,392 1337,517 475,123 960,188 1462,191z"/>
  <path class="fil7" d="M1.07104e+006 544329c761,-3 1448,-106 2058,-313 611,-207 1127,-492 1559,-861 431,-368 762,-795 992,-1280 228,-489 341,-1016 344,-1582 -3,-527 -80,-989 -233,-1384 -151,-397 -364,-747 -635,-1041 -273,-297 -591,-556 -953,-779 -364,-220 -759,-421 -1183,-599l-2089 -873c-289,-113 -571,-239 -856,-372 -282,-135 -540,-291 -772,-469 -236,-181 -422,-394 -564,-640 -140,-249 -212,-543 -215,-886 3,-430 115,-799 338,-1112 226,-314 540,-557 948,-725 404,-171 885,-258 1439,-258 674,3 1287,126 1833,362 548,239 1045,562 1489,976l975 -1144c-344,-353 -742,-660 -1190,-925 -444,-262 -928,-469 -1452,-618 -524,-145 -1075,-220 -1655,-223 -663,3 -1277,97 -1833,281 -561,188 -1045,450 -1456,789 -415,337 -734,738 -962,1197 -226,459 -342,967 -345,1517 7,517 97,973 272,1367 179,392 411,735 703,1022 292,291 611,537 955,744 349,204 693,375 1035,514l2109 893c344,149 666,294 957,443 296,149 551,314 771,498 221,184 390,404 513,656 123,256 186,563 186,925 -3,469 -126,877 -368,1226 -245,346 -597,618 -1051,808 -458,194 -1005,291 -1645,295 -508,-4 -1002,-75 -1486,-220 -484,-146 -941,-350 -1373,-615 -433,-262 -825,-572 -1180,-931l-1094 1222c425,437 902,812 1433,1126 527,317 1101,559 1717,731 617,171 1273,255 1964,258z"/>
  <path id="1" class="fil7" d="M1.08119e+006 544329c445,-3 875,-71 1290,-207 418,-136 816,-317 1200,-543 382,-226 747,-482 1091,-763l60 0 159 1261 1493 0 0 -6481c3,-873 -126,-1629 -385,-2276 -262,-647 -666,-1148 -1217,-1507 -554,-356 -1267,-537 -2139,-543 -435,3 -852,45 -1257,129 -401,81 -785,191 -1147,326 -364,136 -700,285 -1011,444 -312,161 -594,320 -842,478l716 1223c285,-191 599,-372 942,-544 341,-168 705,-307 1094,-417 384,-107 788,-162 1207,-165 441,3 806,78 1094,223 292,146 517,346 683,595 166,253 285,534 351,851 70,317 103,647 100,989 -1529,165 -2785,411 -3767,738 -979,323 -1704,750 -2175,1274 -471,524 -707,1167 -704,1927 8,634 147,1174 419,1620 272,443 646,783 1121,1016 473,233 1014,349 1624,352zm518 -1416c-362,0 -686,-55 -973,-172 -288,-113 -513,-294 -682,-543 -165,-249 -253,-572 -256,-973 -3,-340 80,-650 249,-928 170,-278 444,-531 823,-751 377,-220 882,-414 1505,-575 627,-162 1392,-298 2298,-404l0 2949c-349,304 -683,559 -1002,766 -321,207 -640,366 -958,472 -322,104 -657,159 -1004,159z"/>
  <path id="12" class="fil7" d="M1.09517e+006 528729c-261,-106 -543,-194 -852,-255 -308,-62 -626,-94 -958,-94 -716,3 -1306,145 -1770,427 -465,278 -809,679 -1035,1196 -226,518 -338,1135 -338,1850l0 1688 -1473 97 0 1339 1473 0 0 9100 1810 0 0 -9100 2288 0 0 -1436 -2288 0 0 -1668c0,-683 127,-1197 378,-1549 252,-350 636,-528 1154,-528 192,0 391,23 600,72 209,45 411,113 613,200l398 -1339z"/>
  <path id="123" class="fil7" d="M1.10052e+006 544329c491,-3 948,-52 1370,-149 424,-97 819,-226 1187,-388 364,-165 706,-346 1025,-549l-657 -1165c-394,266 -813,469 -1257,615 -441,145 -925,217 -1449,220 -687,-3 -1289,-155 -1813,-456 -521,-301 -936,-725 -1241,-1274 -308,-550 -484,-1203 -527,-1957l7282 0c19,-129 40,-278 56,-452 14,-175 23,-359 23,-557 -3,-1009 -169,-1882 -504,-2619 -335,-737 -819,-1310 -1459,-1714 -639,-404 -1416,-608 -2334,-614 -504,0 -995,84 -1469,249 -478,164 -918,404 -1330,721 -411,313 -773,698 -1080,1151 -312,449 -554,964 -730,1539 -173,576 -262,1203 -265,1889 3,870 138,1646 404,2325 266,682 637,1258 1107,1733 471,472 1022,831 1645,1080 624,246 1297,369 2016,372zm-3382 -6364c57,-521 179,-983 361,-1387 186,-408 419,-751 696,-1032 282,-281 598,-495 946,-640 349,-146 717,-220 1101,-220 567,0 1048,126 1449,375 398,249 706,618 915,1106 212,485 322,1087 322,1798l-5790 0z"/>
  <path id="1234" class="fil7" d="M1.11037e+006 544329c332,-3 667,-45 1008,-123 342,-74 670,-165 982,-265l-358 -1319c-186,71 -388,132 -610,187 -223,52 -428,81 -624,84 -414,0 -746,-80 -991,-239 -245,-158 -418,-388 -524,-692 -106,-304 -159,-673 -156,-1106l0 -5879 2924 0 0 -1436 -2924 0 0 -2949 -1512 0 -219 2949 -1691 97 0 1339 1612 0 0 5840c-4,709 89,1326 288,1850 196,524 517,931 971,1222 451,288 1058,437 1824,440z"/>
  <path id="12345" class="fil7" d="M1.11465e+006 548617c537,-3 1011,-97 1428,-281 415,-184 783,-443 1104,-773 319,-333 597,-721 843,-1164 242,-443 457,-928 643,-1449l4079 -11409 -1771 0 -1930 5860c-149,472 -302,960 -458,1468 -155,508 -308,999 -457,1481l-100 0c-112,-320 -228,-647 -347,-983 -120,-340 -236,-673 -352,-1009 -116,-333 -229,-650 -335,-957l-2208 -5860 -1891 0 4338 10555 -239 796c-146,436 -331,828 -554,1167 -226,340 -494,608 -809,802 -312,198 -673,298 -1084,301 -142,-3 -285,-23 -431,-58 -143,-36 -272,-75 -385,-117l-358 1417c169,68 358,120 570,158 209,36 444,55 704,55z"/>
  <polygon id="123456" class="fil7" points="1.12816e+006,544077 1.13634e+006,544077 1.13634e+006,542641 1.13045e+006,542641 1.13614e+006,534492 1.13614e+006,533541 1.12878e+006,533541 1.12878e+006,534977 1.13385e+006,534977 1.12816e+006,543126 "/>
  <path id="1234567" class="fil7" d="M1.1427e+006 544329c667,0 1300,-126 1900,-368 600,-246 1134,-605 1599,-1077 467,-472 835,-1048 1104,-1730 269,-683 404,-1462 411,-2335 -7,-880 -142,-1662 -411,-2348 -269,-689 -637,-1268 -1104,-1743 -465,-475 -999,-838 -1599,-1087 -600,-245 -1233,-371 -1900,-371 -666,0 -1300,126 -1900,371 -600,249 -1131,612 -1598,1087 -468,475 -836,1054 -1104,1743 -268,686 -405,1468 -411,2348 6,873 143,1652 411,2335 268,682 636,1258 1104,1730 467,472 998,831 1598,1077 600,242 1234,368 1900,368zm0 -1474c-626,-4 -1174,-175 -1642,-508 -467,-333 -828,-802 -1086,-1404 -260,-604 -392,-1313 -395,-2124 0,-608 76,-1161 225,-1659 149,-498 358,-928 633,-1287 276,-362 607,-637 988,-835 382,-194 809,-291 1277,-294 471,3 895,100 1280,294 384,198 716,473 995,835 275,359 490,789 640,1287 152,498 229,1051 229,1659 -3,811 -137,1520 -398,2124 -263,602 -631,1071 -1098,1404 -471,333 -1021,504 -1648,508z"/>
  <path id="12345678" class="fil7" d="M1.15056e+006 544077l1811 0 0 -7645c361,-356 696,-653 1008,-892 312,-240 623,-417 935,-537 315,-123 653,-181 1021,-181 477,-3 866,94 1167,288 306,197 527,501 670,915 142,417 216,951 212,1610l0 6442 1811 0 0 -6675c3,-1351 -262,-2376 -799,-3078 -540,-699 -1373,-1051 -2504,-1054 -487,3 -941,84 -1363,242 -421,159 -816,372 -1187,640 -371,269 -729,570 -1070,903l-60 0 -160 -1514 -1492 0 0 10536z"/>
  <path id="123456789" class="fil7" d="M1.16707e+006 544329c491,-3 948,-52 1370,-149 424,-97 819,-226 1187,-388 364,-165 706,-346 1025,-549l-657 -1165c-394,266 -813,469 -1257,615 -441,145 -925,217 -1449,220 -687,-3 -1289,-155 -1813,-456 -521,-301 -936,-725 -1241,-1274 -308,-550 -484,-1203 -527,-1957l7282 0c19,-129 40,-278 56,-452 14,-175 23,-359 23,-557 -3,-1009 -169,-1882 -504,-2619 -335,-737 -819,-1310 -1459,-1714 -639,-404 -1416,-608 -2334,-614 -504,0 -995,84 -1469,249 -478,164 -918,404 -1330,721 -411,313 -773,698 -1080,1151 -312,449 -554,964 -730,1539 -173,576 -262,1203 -265,1889 3,870 138,1646 404,2325 266,682 637,1258 1107,1733 471,472 1022,831 1645,1080 624,246 1297,369 2016,372zm-3382 -6364c57,-521 179,-983 361,-1387 186,-408 419,-751 696,-1032 282,-281 598,-495 946,-640 349,-146 717,-220 1101,-220 567,0 1048,126 1449,375 398,249 706,618 915,1106 212,485 322,1087 322,1798l-5790 0z"/>
  <polygon class="fil7" points="711131,543778 712934,543778 712934,537065 719564,537065 719564,543778 721348,543778 721348,529556 719564,529556 719564,535512 712934,535512 712934,529556 711131,529556 "/>
  <path id="1" class="fil7" d="M727512 544030c433,-3 853,-71 1257,-207 407,-136 795,-317 1170,-543 371,-226 727,-482 1063,-763l58 0 154 1261 1455 0 0 -6481c3,-873 -123,-1629 -374,-2276 -256,-647 -650,-1148 -1186,-1507 -540,-356 -1235,-537 -2085,-543 -423,3 -830,45 -1225,129 -390,81 -765,191 -1118,326 -354,136 -681,285 -985,444 -304,161 -578,320 -820,478l697 1223c278,-191 585,-372 919,-544 332,-168 687,-307 1066,-417 374,-107 768,-162 1176,-165 429,3 785,78 1066,223 284,146 503,346 665,595 162,253 278,534 343,851 68,317 100,647 97,989 -1490,165 -2714,411 -3671,738 -953,323 -1661,750 -2119,1274 -459,524 -689,1167 -686,1927 7,634 143,1174 408,1620 265,443 629,783 1092,1016 462,233 988,349 1583,352zm504 -1416c-353,0 -668,-55 -947,-172 -281,-113 -501,-294 -665,-543 -161,-249 -246,-572 -249,-973 -3,-340 78,-650 243,-928 164,-278 432,-531 801,-751 368,-220 859,-414 1467,-575 610,-162 1356,-298 2239,-404l0 2949c-340,304 -666,559 -976,766 -313,207 -624,366 -934,472 -313,104 -640,159 -979,159z"/>
  <polygon id="12" class="fil7" points="734917,543778 742885,543778 742885,542342 737146,542342 742691,534193 742691,533242 735518,533242 735518,534678 740461,534678 734917,542827 "/>
  <path id="123" class="fil7" d="M747131 544030c433,-3 853,-71 1257,-207 407,-136 795,-317 1170,-543 371,-226 727,-482 1063,-763l58 0 154 1261 1455 0 0 -6481c3,-873 -123,-1629 -374,-2276 -256,-647 -650,-1148 -1186,-1507 -540,-356 -1235,-537 -2085,-543 -423,3 -830,45 -1225,129 -390,81 -765,191 -1118,326 -354,136 -681,285 -985,444 -304,161 -578,320 -820,478l697 1223c278,-191 585,-372 919,-544 332,-168 687,-307 1066,-417 374,-107 768,-162 1176,-165 429,3 785,78 1066,223 284,146 503,346 665,595 162,253 278,534 343,851 68,317 100,647 97,989 -1490,165 -2714,411 -3671,738 -953,323 -1661,750 -2119,1274 -459,524 -689,1167 -686,1927 7,634 143,1174 408,1620 265,443 629,783 1092,1016 462,233 988,349 1583,352zm504 -1416c-353,0 -668,-55 -947,-172 -281,-113 -501,-294 -665,-543 -161,-249 -246,-572 -249,-973 -3,-340 78,-650 243,-928 164,-278 432,-531 801,-751 368,-220 859,-414 1467,-575 610,-162 1356,-298 2239,-404l0 2949c-340,304 -666,559 -976,766 -313,207 -624,366 -934,472 -313,104 -640,159 -979,159z"/>
  <path id="1234" class="fil7" d="M755642 543778l1764 0 0 -6772c236,-598 504,-1077 805,-1432 300,-356 610,-611 930,-767 319,-155 627,-229 921,-226 139,0 265,3 378,16 113,10 219,26 323,52 103,26 210,61 326,107l330 -1553c-162,-87 -333,-145 -511,-181 -181,-35 -384,-51 -613,-51 -395,3 -776,93 -1138,271 -362,178 -698,430 -1007,757 -314,327 -595,715 -841,1164l-58 0 -156 -1921 -1453 0 0 10536z"/>
  <path id="12345" class="fil7" d="M766537 544030c419,-3 823,-71 1205,-207 380,-132 739,-313 1072,-537 336,-226 643,-475 921,-750l39 0 175 1242 1433 0 0 -15445 -1763 0 0 4055 97 1824c-307,-258 -608,-482 -908,-666 -297,-184 -611,-326 -944,-427 -332,-97 -704,-148 -1115,-148 -604,3 -1183,132 -1725,388 -546,255 -1030,624 -1454,1106 -423,481 -759,1063 -1002,1746 -245,682 -368,1452 -375,2309 7,1174 185,2170 540,2988 356,821 856,1445 1506,1875 646,427 1415,644 2298,647zm387 -1474c-620,-4 -1151,-165 -1580,-485 -433,-324 -763,-786 -988,-1391 -223,-602 -340,-1329 -340,-2180 3,-604 81,-1151 236,-1646 155,-494 368,-918 646,-1274 278,-355 598,-630 966,-824 369,-191 766,-288 1196,-291 433,-4 855,80 1273,255 414,171 843,456 1286,851l0 5529c-434,485 -869,851 -1312,1093 -440,243 -901,363 -1383,363z"/>
  <polygon id="123456" class="fil7" points="778207,543778 786175,543778 786175,542342 780436,542342 785981,534193 785981,533242 778808,533242 778808,534678 783751,534678 778207,542827 "/>
  <path id="1234567" class="fil7" d="M792379 544030c650,0 1267,-126 1852,-368 584,-246 1105,-605 1557,-1077 456,-472 815,-1048 1076,-1730 262,-683 394,-1462 401,-2335 -7,-880 -139,-1662 -401,-2348 -261,-689 -620,-1268 -1076,-1743 -452,-475 -973,-838 -1557,-1087 -585,-245 -1202,-371 -1852,-371 -649,0 -1267,126 -1851,371 -585,249 -1102,612 -1558,1087 -455,475 -814,1054 -1075,1743 -262,686 -395,1468 -401,2348 6,873 139,1652 401,2335 261,682 620,1258 1075,1730 456,472 973,831 1558,1077 584,242 1202,368 1851,368zm0 -1474c-610,-4 -1144,-175 -1599,-508 -456,-333 -808,-802 -1060,-1404 -252,-604 -381,-1313 -384,-2124 0,-608 74,-1161 220,-1659 144,-498 348,-928 616,-1287 269,-362 592,-637 963,-835 372,-194 789,-291 1244,-294 459,3 872,100 1247,294 375,198 699,473 970,835 268,359 478,789 624,1287 148,498 223,1051 223,1659 -3,811 -133,1520 -388,2124 -256,602 -615,1071 -1070,1404 -459,333 -995,504 -1606,508z"/>
  <path id="12345678" class="fil7" d="M800036 543778l1764 0 0 -7645c352,-356 679,-653 982,-892 304,-240 608,-417 912,-537 306,-123 636,-181 995,-181 464,-3 843,94 1137,288 297,197 513,501 652,915 139,417 211,951 207,1610l0 6442 1764 0 0 -6675c3,-1351 -254,-2376 -778,-3078 -526,-699 -1338,-1051 -2440,-1054 -474,3 -917,84 -1328,242 -410,159 -795,372 -1157,640 -361,269 -710,570 -1043,903l-58 0 -156 -1514 -1453 0 0 10536z"/>
  <path id="123456789" class="fil7" d="M816126 544030c479,-3 924,-52 1335,-149 414,-97 798,-226 1157,-388 355,-165 687,-346 998,-549l-639 -1165c-385,266 -793,469 -1225,615 -430,145 -902,217 -1412,220 -670,-3 -1257,-155 -1768,-456 -507,-301 -911,-725 -1209,-1274 -299,-550 -471,-1203 -513,-1957l7096 0c19,-129 39,-278 55,-452 13,-175 22,-359 22,-557 -3,-1009 -165,-1882 -491,-2619 -327,-737 -798,-1310 -1422,-1714 -623,-404 -1379,-608 -2275,-614 -490,0 -969,84 -1430,249 -466,164 -896,404 -1296,721 -401,313 -754,698 -1053,1151 -304,449 -540,964 -712,1539 -168,576 -255,1203 -258,1889 3,870 135,1646 394,2325 259,682 621,1258 1079,1733 459,472 995,831 1603,1080 607,246 1264,369 1964,372zm-3295 -6364c55,-521 174,-983 352,-1387 180,-408 407,-751 678,-1032 275,-281 583,-495 921,-640 340,-146 699,-220 1073,-220 553,0 1021,126 1412,375 388,249 688,618 891,1106 207,485 314,1087 314,1798l-5641 0z"/>
  <path class="fil0 str2" d="M1.16385e+006 650610c0,2117 1727,3843 3845,3843 2118,0 3845,-1726 3845,-3843 0,-2116 -1727,-3842 -3845,-3842 -2118,0 -3845,1726 -3845,3842 0,0 0,0 0,0z"/>
  <path class="fil0 str2" d="M1.16385e+006 699240c0,2117 1727,3843 3845,3843 2118,0 3845,-1726 3845,-3843 0,-2116 -1727,-3842 -3845,-3842 -2118,0 -3845,1726 -3845,3842 0,0 0,0 0,0z"/>
  <line class="fil5 str1" x1="1.27552e+006" y1="649869" x2="1.27552e+006" y2= "659326" />
  <line class="fil5 str1" x1="1.17089e+006" y1="650610" x2="1.2762e+006" y2= "650610" />
  <line class="fil5 str1" x1="1.17236e+006" y1="699240" x2="1.27607e+006" y2= "699240" />
  <line class="fil5 str1" x1="1.27552e+006" y1="699954" x2="1.27552e+006" y2= "689026" />
  <path class="fil3" d="M1.19381e+006 724425l8126 0 0 -1394 -3579 0c-217,0 -450,9 -691,21 -237,12 -481,29 -722,47 -244,21 -475,38 -702,55 761,-717 1452,-1422 2071,-2113 618,-691 1149,-1370 1595,-2038 447,-670 787,-1331 1028,-1984 242,-652 362,-1299 365,-1943 -3,-776 -156,-1450 -462,-2019 -302,-571 -734,-1014 -1292,-1330 -561,-314 -1228,-476 -2001,-479 -543,3 -1037,83 -1480,239 -444,158 -855,379 -1234,664 -379,282 -743,618 -1093,1003l934 917c235,-285 493,-541 773,-764 282,-227 579,-403 898,-535 321,-130 656,-198 1008,-201 535,3 979,116 1331,333 352,220 614,521 788,903 176,385 261,823 261,1322 2,738 -208,1526 -635,2364 -425,838 -1075,1749 -1950,2734 -876,985 -1989,2066 -3337,3245l0 953z"/>
  <polygon id="1" class="fil3" points="1.20363e+006,720104 1.20814e+006,720104 1.20814e+006,718869 1.20363e+006,718869 "/>
  <path id="12" class="fil3" d="M1.21048e+006 724425l7086 0 0 -1340 -2591 0 0 -11589 -1234 0c-350,203 -740,379 -1175,531 -435,151 -934,280 -1505,386l0 1022 2292 0 0 9650 -2873 0 0 1340z"/>
  <path id="123" class="fil3" d="M1.22362e+006 724654c823,0 1531,-250 2130,-746 602,-500 1063,-1247 1393,-2247 326,-996 493,-2245 496,-3745 -3,-1493 -170,-2734 -496,-3719 -330,-988 -791,-1725 -1393,-2217 -599,-487 -1307,-732 -2130,-732 -825,0 -1543,241 -2145,729 -599,489 -1065,1224 -1392,2212 -329,987 -496,2227 -499,3727 3,1500 170,2749 499,3745 327,1000 793,1747 1392,2247 602,496 1320,746 2145,746zm0 -1288c-497,3 -929,-184 -1298,-566 -368,-380 -656,-974 -858,-1776 -206,-806 -308,-1841 -312,-3108 4,-1255 106,-2278 312,-3069 202,-790 490,-1370 858,-1743 369,-370 801,-553 1298,-551 490,-2 919,181 1287,551 364,373 649,953 855,1743 203,791 305,1814 309,3069 -4,1267 -106,2302 -309,3108 -206,802 -491,1396 -855,1776 -368,382 -797,569 -1287,566z"/>
  <path id="1234" class="fil3" d="M1.23264e+006 724425l1886 0 4106 -12929 -1657 0 -2080 7002c-149,503 -291,986 -423,1444 -129,462 -261,920 -394,1382 -132,461 -279,940 -434,1443l-71 0c-161,-503 -308,-982 -440,-1443 -132,-462 -264,-920 -391,-1382 -130,-458 -270,-941 -420,-1444l-2097 -7002 -1711 0 4126 12929z"/>
  <g>
   <path class="fil3" d="M1.29073e+006 674205l-1760 0 0 0 -16 -723 -54 -709 -91 -698 -120 -687 -156 -677 -190 -663 -219 -649 -249 -634 -281 -615 -310 -604 -333 -587 -367 -564 -386 -548 -417 -530 -439 -505 -464 -485 -485 -464 -505 -440 -530 -412 -548 -390 -565 -367 -587 -336 -603 -307 -616 -281 -633 -249 -649 -219 -664 -190 -676 -156 -688 -120 -698 -91 -709 -54 -723 -16 0 -1760 805 22 799 62 788 97 776 142 760 176 746 210 731 247 715 283 700 315 677 349 657 378 641 407 616 438 592 468 573 494 547 520 520 547 493 573 465 592 442 616 407 640 381 657 346 678 315 699 283 716 247 731 210 745 176 761 142 775 97 788 62 799 22 805 0 0zm-15731 15730l0 -1760 0 0 723 -16 709 -54 698 -91 688 -120 676 -156 664 -190 649 -219 633 -249 616 -281 603 -307 587 -336 565 -367 548 -386 530 -417 505 -440 488 -463 461 -485 439 -505 417 -530 386 -548 367 -565 336 -587 307 -603 281 -616 249 -633 219 -649 190 -664 156 -676 120 -687 91 -698 54 -709 16 -723 1760 0 -22 805 -62 799 -97 788 -142 775 -176 760 -210 746 -247 731 -283 715 -315 700 -349 677 -378 657 -407 641 -442 616 -465 592 -493 573 -523 547 -544 519 -573 494 -592 465 -616 442 -641 407 -657 378 -677 349 -700 315 -715 283 -731 247 -746 210 -760 176 -776 142 -788 97 -799 62 -805 22 0 0zm-15729 -15730l1760 0 0 0 16 723 54 709 91 698 120 687 156 676 190 664 219 649 249 633 280 616 307 603 337 587 366 565 386 548 417 530 440 505 463 485 485 463 505 440 530 417 548 386 565 367 586 336 604 307 615 281 634 249 649 219 663 190 677 156 687 120 698 91 709 54 723 16 0 1760 -805 -22 -799 -62 -788 -97 -775 -142 -761 -176 -745 -210 -731 -247 -716 -283 -699 -315 -678 -349 -656 -378 -641 -407 -616 -442 -592 -465 -573 -494 -547 -519 -519 -547 -494 -573 -465 -592 -442 -616 -406 -641 -379 -657 -349 -677 -314 -700 -283 -715 -247 -731 -210 -746 -176 -760 -142 -775 -97 -788 -62 -799 -22 -805 0 0zm15729 -15730l0 1760 0 0 -723 16 -709 54 -698 91 -687 120 -677 156 -663 190 -649 219 -634 249 -615 281 -604 307 -586 336 -565 367 -548 390 -530 412 -505 440 -485 461 -463 488 -440 505 -417 530 -386 548 -366 564 -337 587 -307 604 -280 615 -249 634 -219 649 -190 663 -156 677 -120 687 -91 698 -54 709 -16 723 -1760 0 22 -805 62 -799 97 -788 142 -775 176 -761 210 -745 247 -731 283 -716 314 -699 349 -678 379 -657 406 -640 442 -616 465 -592 494 -573 519 -544 547 -523 573 -494 592 -468 616 -438 641 -407 656 -378 678 -349 699 -315 716 -283 731 -247 745 -210 761 -176 775 -142 788 -97 799 -62 805 -22 0 0z"/>
  </g>
  <path class="fil3" d="M1.27446e+006 681811l2075 0 4518 -14223 -1823 0 -2287 7703c-165,554 -321,1084 -466,1588 -142,508 -288,1012 -433,1520 -145,509 -307,1035 -478,1588l-78 0c-177,-553 -340,-1079 -485,-1588 -145,-508 -291,-1012 -429,-1520 -142,-504 -298,-1034 -463,-1588l-2307 -7703 -1880 0 4536 14223z"/>
 </g>
</svg>
